<svg xmlns="http://www.w3.org/2000/svg" viewBox="0 0 313.42 132.72"><defs><style>.cls-1{fill:#91476a;}.cls-2{fill:#013e41;}</style></defs><title>TILA Logo</title><g id="Layer_2" data-name="Layer 2"><g id="Layer_1-2" data-name="Layer 1"><path class="cls-1" d="M73,71.9a12.9,12.9,0,0,1,1.85-2.51,4.26,4.26,0,0,0,.51-2.55,3.56,3.56,0,0,0-.32-2c-.75-1.07-1.81-1.9-2.23-3.16a6.66,6.66,0,0,1-.32-2.05,6.6,6.6,0,1,1,13.2,0,6.67,6.67,0,0,1-.33,2.05c-.41,1.26-1.47,2.09-2.22,3.16a3.56,3.56,0,0,0-.33,2,4.34,4.34,0,0,0,.51,2.55,13,13,0,0,1,1.86,2.51A6.6,6.6,0,1,1,73,71.9Z"/><path class="cls-1" d="M45.48,84.15h.14a7.58,7.58,0,0,1,10.9-5.27l0-.16,1.31,1a3.49,3.49,0,0,0,1.9,1l.13,0a3.38,3.38,0,0,0,.4-1.29c-.22-5.82-.7-10.39-.9-12.1l-.12-1.1,1.1-.13c.88-.1,5.05-.57,10.74-.85C61.67,50.93,43.27,36.46,9.43,25c-3.78-1.29-17.19,2.14-3.2,15.63,3.76,3.63,5.59,15.93,5.08,22.79C10.52,74.14,14.23,84,45.47,85.12Z"/><path class="cls-1" d="M112.7,86v.51h-.14a7.59,7.59,0,0,1-10.91,5.26l-.05.16-1.3-1a3.44,3.44,0,0,0-1.9-1h-.13a3.46,3.46,0,0,0-.4,1.29c.22,5.82.7,10.39.9,12.1l.12,1.1-1.1.13c-1,.12-6.61.75-13.86,1h-.2l-.19-.07a2.73,2.73,0,0,1-1.81-1.41,3.5,3.5,0,0,1,.42-3.13l-.17-.06,1-1.19a5.38,5.38,0,0,0-4.15-8.79A5.48,5.48,0,0,0,75,92.49a5.23,5.23,0,0,0-1.62,3.77,7.75,7.75,0,0,0,1,3.25l.1.22a7.85,7.85,0,0,1,1.34,1.84,2.9,2.9,0,0,1,.21,2.48,2.7,2.7,0,0,1-1.78,1.42l-.19.07h-.2c-7.14-.25-12.69-.92-13.73-1l-1.1-.15.14-1.1c.23-1.78.77-6.55,1-12.62a1.87,1.87,0,0,0-.25-.56h-.08c-.17,0-.79.09-1.94,1.19l-.32.31h0A6.79,6.79,0,0,1,53,92.91a7.48,7.48,0,0,1-5.32-2.21,7.6,7.6,0,0,1-2.15-4.19h-.14V86c-10,1.77-27.54,7.31-17.16,23.84,14.09,22.46,35.19,31.34,44.47,13a55.06,55.06,0,0,0,6.54-17.33,57.8,57.8,0,0,0,6.14,17.33c9.27,18.35,30.38,9.47,44.47-13C140.29,93.3,122.67,87.77,112.7,86Z"/><path class="cls-1" d="M148.75,25c-33.85,11.51-52.25,26-61.7,40.29,5.8.3,10.1.82,11,.94l1.1.14L99,67.42c-.22,1.78-.77,6.55-1,12.63a1.89,1.89,0,0,0,.25.55h.08c.17,0,.79-.08,1.94-1.19l.32-.31h0a6.85,6.85,0,0,1,4.5-1.37,7.6,7.6,0,0,1,7.47,6.41h.15l0,1c31.24-1.12,34.94-11,34.15-21.75-.5-6.86,1.32-19.16,5.09-22.79C165.94,27.09,152.52,23.66,148.75,25Z"/><path class="cls-1" d="M34.86.85l.26.16.23.15.46.3.88.61c.59.4,1.17.81,1.74,1.22,1.15.82,2.27,1.65,3.38,2.5q3.34,2.55,6.51,5.28a129.13,129.13,0,0,1,12,11.65A88.52,88.52,0,0,1,70.29,36c.71,1.19,1.39,2.39,2,3.62s1.24,2.47,1.79,3.73,1,2.55,1.49,3.85.83,2.61,1.16,3.94c0,0,0,.06-.05.07a.06.06,0,0,1-.07,0c-.5-1.26-1.06-2.5-1.66-3.71s-1.26-2.4-2-3.55-1.45-2.28-2.22-3.38-1.58-2.16-2.42-3.21A86,86,0,0,0,57.15,25.93a123.9,123.9,0,0,0-12.84-9.52Q41,14.24,37.5,12.26C36.35,11.61,35.19,11,34,10.35l-1.74-.91L31.42,9,31,8.8l-.21-.1-.19-.09A4.46,4.46,0,0,1,33.86.31a4.79,4.79,0,0,1,.68.34Z"/><path class="cls-1" d="M123.31.85l-.25.16-.24.15-.45.3-.89.61-1.73,1.22c-1.15.82-2.27,1.65-3.39,2.5q-3.33,2.55-6.51,5.28a130.38,130.38,0,0,0-12,11.65A89.13,89.13,0,0,0,87.89,36c-.71,1.19-1.4,2.39-2,3.62s-1.24,2.47-1.79,3.73-1,2.55-1.49,3.85-.83,2.61-1.16,3.94c0,0,0,.06,0,.07a.06.06,0,0,0,.07,0c.5-1.26,1-2.5,1.65-3.71s1.27-2.4,2-3.55,1.44-2.28,2.21-3.38S89,38.4,89.79,37.35A86,86,0,0,1,101,25.93a122.84,122.84,0,0,1,12.84-9.52q3.34-2.17,6.8-4.15c1.15-.65,2.31-1.29,3.48-1.91l1.74-.91.87-.43.43-.21.21-.1.19-.09a4.46,4.46,0,0,0-3.28-8.3,5.26,5.26,0,0,0-.67.34Z"/><path class="cls-2" d="M176,116.18h.53v5.94H176a4.51,4.51,0,0,0-.81-1.79,7.32,7.32,0,0,1-5.72,2.52,8.12,8.12,0,0,1-6-2.32,8.28,8.28,0,0,1-2.34-6.15,10.65,10.65,0,0,1,1.08-4.73,7.33,7.33,0,0,1,3-3.3,8.58,8.58,0,0,1,4.23-1.07,7.53,7.53,0,0,1,3.44.78,7,7,0,0,1,2.31,1.73,6.47,6.47,0,0,0,.65-2.2h.55l.14,6.42H176c-.38-2.28-1.14-3.87-2.3-4.76a6.21,6.21,0,0,0-3.9-1.34,5,5,0,0,0-4.23,2.17,10.37,10.37,0,0,0-1.57,6.18,8.85,8.85,0,0,0,1.71,5.85,5.36,5.36,0,0,0,4.26,2,6.61,6.61,0,0,0,2.79-.66,4.87,4.87,0,0,0,2.26-2.25A8.46,8.46,0,0,0,176,116.18Z"/><path class="cls-2" d="M191.19,116.29h-6.43l-.44,1.07a11,11,0,0,0-1,3,1.35,1.35,0,0,0,.52,1.16,2.16,2.16,0,0,0,1.33.39v.58h-5V122a2.71,2.71,0,0,0,1.68-.79,9.38,9.38,0,0,0,1.32-2.61l.61-1.45,4.92-11.76h.49l5.66,13.46.77,1.78a2.46,2.46,0,0,0,.71.94,2.52,2.52,0,0,0,1.33.43v.58H191V122a5,5,0,0,0,1.66-.18.71.71,0,0,0,.43-.72,7.14,7.14,0,0,0-.58-1.63Zm-.21-.56-3-7.23-3,7.23Z"/><path class="cls-2" d="M200.88,122.37v-5.46h.62q1.06,5.32,5,5.33a3.68,3.68,0,0,0,2.77-1,3.23,3.23,0,0,0,1-2.28,2.93,2.93,0,0,0-.86-2.14,11,11,0,0,0-3.15-1.82,25,25,0,0,1-3.08-1.53,4.74,4.74,0,0,1-1.62-1.71,4.54,4.54,0,0,1-.58-2.24,4,4,0,0,1,1.26-3,4.41,4.41,0,0,1,3.18-1.2,5.65,5.65,0,0,1,2,.35,5,5,0,0,1,1.95,1.45,2.65,2.65,0,0,0,.65-1.49h.55V110h-.55a5.86,5.86,0,0,0-1.68-3,4,4,0,0,0-2.79-1.12,2.8,2.8,0,0,0-2.22.82,2.72,2.72,0,0,0-.71,1.8,2.59,2.59,0,0,0,.89,2,12,12,0,0,0,3.16,1.85,33.59,33.59,0,0,1,3.18,1.57,4.45,4.45,0,0,1,1.6,1.65,4.8,4.8,0,0,1,.6,2.42,4.66,4.66,0,0,1-1.45,3.54,5.43,5.43,0,0,1-3.88,1.36,5.9,5.9,0,0,1-4.65-2.14,4.37,4.37,0,0,0-.61,1.66Z"/><path class="cls-2" d="M229.8,117.26h.6l-.37,5.28H216V122h.35a2.68,2.68,0,0,0,1.63-.33,1.59,1.59,0,0,0,.47-.86,21.06,21.06,0,0,0,.1-2.64v-8.32a18.82,18.82,0,0,0-.11-2.55,1.17,1.17,0,0,0-.49-.85,3.41,3.41,0,0,0-1.6-.25v-.57h12.11l.4,4.22h-.59a6.56,6.56,0,0,0-1-2.51,2.48,2.48,0,0,0-1.38-.94,12,12,0,0,0-2.58-.2H221v7.12h1.8a4.69,4.69,0,0,0,1.74-.22,1.14,1.14,0,0,0,.65-.64,6.1,6.1,0,0,0,.15-1.68h.59v5.8h-.59a4.88,4.88,0,0,0-.24-1.89,1.12,1.12,0,0,0-.69-.63,6,6,0,0,0-1.54-.14H221v4q0,3,.39,3.54c.26.36,1,.53,2.09.53h1.26a6,6,0,0,0,2.2-.34,4,4,0,0,0,1.65-1.41A8.29,8.29,0,0,0,229.8,117.26Z"/><path class="cls-2" d="M247.31,114.56v3.57a20.44,20.44,0,0,0,.1,2.62,1.31,1.31,0,0,0,.5.91,2.74,2.74,0,0,0,1.55.3H250v.58h-7.77V122h.45a3,3,0,0,0,1.51-.27,1.26,1.26,0,0,0,.53-.86,20,20,0,0,0,.11-2.7v-8.32a19.08,19.08,0,0,0-.11-2.61,1.13,1.13,0,0,0-.5-.81,4,4,0,0,0-1.68-.23h-.31v-.57l2.13-.08c1.7-.05,3-.08,4-.08a15.14,15.14,0,0,1,4,.41,4.7,4.7,0,0,1,2.32,1.46,3.9,3.9,0,0,1,.91,2.65,4.8,4.8,0,0,1-.62,2.45,3.93,3.93,0,0,1-1.78,1.61,10.35,10.35,0,0,1-4.06.55Zm0-.62h1.22a8,8,0,0,0,2.36-.29,2.83,2.83,0,0,0,1.5-1.24,4.18,4.18,0,0,0,.6-2.31,4.1,4.1,0,0,0-1-3.08,4.79,4.79,0,0,0-3.35-1c-.56,0-1,0-1.3,0Z"/><path class="cls-2" d="M276.36,122.54H271.8a20.54,20.54,0,0,1-3.72-4.45c-.53-.77-1.08-1.5-1.66-2.21a8,8,0,0,0-1.19-1.28,1.69,1.69,0,0,0-1-.24h-.68v3.77a22.6,22.6,0,0,0,.1,2.62,1.31,1.31,0,0,0,.5.91,2.72,2.72,0,0,0,1.55.3h.82v.58h-8.12V122H259a3,3,0,0,0,1.5-.27,1.23,1.23,0,0,0,.53-.86,17.84,17.84,0,0,0,.12-2.7v-8.32a17,17,0,0,0-.12-2.61,1.1,1.1,0,0,0-.5-.81,3.89,3.89,0,0,0-1.67-.23h-.29v-.57l2.43-.13c1.61-.07,2.9-.11,3.84-.11a14.25,14.25,0,0,1,3.95.45,5.19,5.19,0,0,1,2.45,1.48,3.48,3.48,0,0,1,.94,2.45,3.78,3.78,0,0,1-1.22,2.83,6.09,6.09,0,0,1-3.6,1.47q1.06.51,3.42,3.7a17.62,17.62,0,0,0,3,3.39,4.55,4.55,0,0,0,2.6.84Zm-12.82-8.75c.63,0,1.28,0,1.94-.08a7.07,7.07,0,0,0,1.74-.27,2.91,2.91,0,0,0,1.19-.66,2.75,2.75,0,0,0,.72-1.13,4.78,4.78,0,0,0,.27-1.72,4.34,4.34,0,0,0-.9-2.87c-.59-.71-1.89-1.07-3.89-1.07-.31,0-.67,0-1.07.05Z"/><path class="cls-2" d="M292.94,117.26h.6l-.36,5.28h-14V122h.35a2.66,2.66,0,0,0,1.63-.33,1.53,1.53,0,0,0,.47-.86,19.16,19.16,0,0,0,.1-2.64v-8.32a17.23,17.23,0,0,0-.11-2.55,1.2,1.2,0,0,0-.48-.85,3.46,3.46,0,0,0-1.61-.25v-.57H291.6l.4,4.22h-.58a6.73,6.73,0,0,0-1-2.51,2.47,2.47,0,0,0-1.39-.94,11.91,11.91,0,0,0-2.57-.2h-2.35v7.12h1.8a4.66,4.66,0,0,0,1.73-.22,1.08,1.08,0,0,0,.65-.64,6,6,0,0,0,.16-1.68h.58v5.8h-.58a4.88,4.88,0,0,0-.24-1.89,1.14,1.14,0,0,0-.7-.63,6,6,0,0,0-1.54-.14h-1.86v4q0,3,.39,3.54c.25.36,1,.53,2.08.53h1.27a6,6,0,0,0,2.2-.34,4,4,0,0,0,1.64-1.41A8.29,8.29,0,0,0,292.94,117.26Z"/><path class="cls-2" d="M302.14,114.56v3.57a23.44,23.44,0,0,0,.09,2.62,1.28,1.28,0,0,0,.51.91,2.72,2.72,0,0,0,1.55.3h.56v.58h-7.76V122h.45a3,3,0,0,0,1.5-.27,1.23,1.23,0,0,0,.53-.86,17.84,17.84,0,0,0,.12-2.7v-8.32a17,17,0,0,0-.12-2.61,1.1,1.1,0,0,0-.5-.81,3.86,3.86,0,0,0-1.67-.23h-.31v-.57l2.12-.08c1.7-.05,3-.08,4-.08a15.06,15.06,0,0,1,4,.41,4.65,4.65,0,0,1,2.32,1.46,3.9,3.9,0,0,1,.91,2.65,4.7,4.7,0,0,1-.62,2.45,3.9,3.9,0,0,1-1.77,1.61,10.41,10.41,0,0,1-4.07.55Zm0-.62h1.21a8,8,0,0,0,2.36-.29,2.83,2.83,0,0,0,1.5-1.24,4.18,4.18,0,0,0,.6-2.31,4.06,4.06,0,0,0-1-3.08,4.76,4.76,0,0,0-3.34-1c-.57,0-1,0-1.3,0Z"/><path class="cls-2" d="M199.5,45v9H184.24V96H173.51V54H158.18V45Z"/><path class="cls-2" d="M215.46,96H204.87V45h10.59Z"/><path class="cls-2" d="M225.42,45h10.66V86.84h25.48V96H225.42Z"/><path class="cls-2" d="M283.31,45h12.06l18.05,51H301.86l-3.37-10.48H279.71L276.25,96H265.1Zm-.7,31.74h13.06l-6.44-20.08Z"/></g></g></svg>