<svg xmlns="http://www.w3.org/2000/svg" viewBox="0 0 158.18 132.72"><defs><style>.cls-1{fill:#91476a;}</style></defs><title>TILA Icon</title><g id="Layer_2" data-name="Layer 2"><g id="Layer_1-2" data-name="Layer 1"><path class="cls-1" d="M73,71.9a12.9,12.9,0,0,1,1.85-2.51,4.26,4.26,0,0,0,.51-2.55,3.56,3.56,0,0,0-.32-2c-.75-1.07-1.81-1.9-2.23-3.16a6.66,6.66,0,0,1-.32-2.05,6.6,6.6,0,1,1,13.2,0,6.67,6.67,0,0,1-.33,2.05c-.41,1.26-1.47,2.09-2.22,3.16a3.56,3.56,0,0,0-.33,2,4.34,4.34,0,0,0,.51,2.55,13,13,0,0,1,1.86,2.51A6.6,6.6,0,1,1,73,71.9Z"/><path class="cls-1" d="M45.48,84.15h.14a7.58,7.58,0,0,1,10.9-5.27l0-.16,1.31,1a3.49,3.49,0,0,0,1.9,1l.13,0a3.38,3.38,0,0,0,.4-1.29c-.22-5.82-.7-10.39-.9-12.1l-.12-1.1,1.1-.13c.88-.1,5.05-.57,10.74-.85C61.67,50.93,43.27,36.46,9.43,25c-3.78-1.29-17.19,2.14-3.2,15.63,3.76,3.63,5.59,15.93,5.08,22.79C10.52,74.14,14.23,84,45.47,85.12Z"/><path class="cls-1" d="M112.7,86v.51h-.14a7.59,7.59,0,0,1-10.91,5.26l-.05.16-1.3-1a3.44,3.44,0,0,0-1.9-1h-.13a3.46,3.46,0,0,0-.4,1.29c.22,5.82.7,10.39.9,12.1l.12,1.1-1.1.13c-1,.12-6.61.75-13.86,1h-.2l-.19-.07a2.73,2.73,0,0,1-1.81-1.41,3.5,3.5,0,0,1,.42-3.13l-.17-.06,1-1.19a5.38,5.38,0,0,0-4.15-8.79A5.48,5.48,0,0,0,75,92.49a5.23,5.23,0,0,0-1.62,3.77,7.75,7.75,0,0,0,1,3.25l.1.22a7.85,7.85,0,0,1,1.34,1.84,2.9,2.9,0,0,1,.21,2.48,2.7,2.7,0,0,1-1.78,1.42l-.19.07h-.2c-7.14-.25-12.69-.92-13.73-1l-1.1-.15.14-1.1c.23-1.78.77-6.55,1-12.62a1.87,1.87,0,0,0-.25-.56h-.08c-.17,0-.79.09-1.94,1.19l-.32.31h0A6.79,6.79,0,0,1,53,92.91a7.48,7.48,0,0,1-5.32-2.21,7.6,7.6,0,0,1-2.15-4.19h-.14V86c-10,1.77-27.54,7.31-17.16,23.84,14.09,22.46,35.19,31.34,44.47,13a55.06,55.06,0,0,0,6.54-17.33,57.8,57.8,0,0,0,6.14,17.33c9.27,18.35,30.38,9.47,44.47-13C140.29,93.3,122.67,87.77,112.7,86Z"/><path class="cls-1" d="M148.75,25c-33.85,11.51-52.25,26-61.7,40.29,5.8.3,10.1.82,11,.94l1.1.14L99,67.42c-.22,1.78-.77,6.55-1,12.63a1.89,1.89,0,0,0,.25.55h.08c.17,0,.79-.08,1.94-1.19l.32-.31h0a6.85,6.85,0,0,1,4.5-1.37,7.6,7.6,0,0,1,7.47,6.41h.15l0,1c31.24-1.12,34.94-11,34.15-21.75-.5-6.86,1.32-19.16,5.09-22.79C165.94,27.09,152.52,23.66,148.75,25Z"/><path class="cls-1" d="M34.86.85l.26.16.23.15.46.3.88.61c.59.4,1.17.81,1.74,1.22,1.15.82,2.27,1.65,3.38,2.5q3.34,2.55,6.51,5.28a129.13,129.13,0,0,1,12,11.65A88.52,88.52,0,0,1,70.29,36c.71,1.19,1.39,2.39,2,3.62s1.24,2.47,1.79,3.73,1,2.55,1.49,3.85.83,2.61,1.16,3.94c0,0,0,.06-.05.07a.06.06,0,0,1-.07,0c-.5-1.26-1.06-2.5-1.66-3.71s-1.26-2.4-2-3.55-1.45-2.28-2.22-3.38-1.58-2.16-2.42-3.21A86,86,0,0,0,57.15,25.93a123.9,123.9,0,0,0-12.84-9.52Q41,14.24,37.5,12.26C36.35,11.61,35.19,11,34,10.35l-1.74-.91L31.42,9,31,8.8l-.21-.1-.19-.09A4.46,4.46,0,0,1,33.86.31a4.79,4.79,0,0,1,.68.34Z"/><path class="cls-1" d="M123.31.85l-.25.16-.24.15-.45.3-.89.61-1.73,1.22c-1.15.82-2.27,1.65-3.39,2.5q-3.33,2.55-6.51,5.28a130.38,130.38,0,0,0-12,11.65A89.13,89.13,0,0,0,87.89,36c-.71,1.19-1.4,2.39-2,3.62s-1.24,2.47-1.79,3.73-1,2.55-1.49,3.85-.83,2.61-1.16,3.94c0,0,0,.06,0,.07a.06.06,0,0,0,.07,0c.5-1.26,1-2.5,1.65-3.71s1.27-2.4,2-3.55,1.44-2.28,2.21-3.38S89,38.4,89.79,37.35A86,86,0,0,1,101,25.93a122.84,122.84,0,0,1,12.84-9.52q3.34-2.17,6.8-4.15c1.15-.65,2.31-1.29,3.48-1.91l1.74-.91.87-.43.43-.21.21-.1.19-.09a4.46,4.46,0,0,0-3.28-8.3,5.26,5.26,0,0,0-.67.34Z"/></g></g></svg>